<?xml version="1.0" encoding="UTF-8"?><svg id="a" xmlns="http://www.w3.org/2000/svg" width="1119.35mm" height="714.5mm" viewBox="0 0 3172.95 2025.35"><defs><style>.b{fill:none;}.b,.c{stroke-width:0px;}.c,.d{fill:#2f3034;}.d,.e,.f{stroke:#000;stroke-miterlimit:10;}.e{fill:red;}.f{fill:#f7bb16;}</style></defs><rect class="f" x=".5" y=".5" width="3166.67" height="2018.45"/><polygon class="b" points="1696.91 2024.97 1696.91 2024.85 1673.84 2024.85 1673.84 2024.97 1696.91 2024.97"/><polygon class="b" points="2687.84 2024.97 2687.85 2024.85 2652.55 2024.85 2652.53 2024.97 2687.84 2024.97"/><polygon class="b" points="2178.37 2024.97 2178.44 2024.85 2150.87 2024.85 2150.8 2024.97 2178.37 2024.97"/><polygon class="b" points="2407.3 2024.97 2407.08 2024.85 2315.38 2024.85 2315.38 2024.97 2407.3 2024.97"/><polygon class="c" points="3008.45 1741.98 3098.45 1783.98 3088.45 1643.36 3008.45 1741.98"/><polygon class="c" points="2652.53 2024.97 2652.55 2024.85 2407.08 2024.85 2407.3 2024.97 2652.53 2024.97"/><polygon class="c" points="2720.45 1661.98 2342.45 1990.67 2407.08 2024.85 2652.55 2024.85 2720.45 1661.98"/><polygon class="c" points="2687.84 2024.97 2842.31 2024.97 2842.19 2024.85 2687.85 2024.85 2687.84 2024.97"/><polygon class="c" points="2687.85 2024.85 2842.19 2024.85 2708.45 1898.48 2687.85 2024.85"/><polygon class="c" points="2713.91 1219.61 2496.45 1525.98 2970.45 1743.98 2897.25 1268.19 2713.91 1219.61"/><polygon class="c" points="644.45 667.98 793.45 465.98 448.45 547.98 644.45 667.98"/><polygon class="c" points="926.45 901.98 1003.45 808.98 907.45 777.98 926.45 901.98"/><polygon class="c" points="1231.45 314.98 872.45 120.98 968.45 517.98 1231.45 314.98"/><polygon class="c" points="1248.45 331.98 838.45 648.98 1266.45 874.98 1248.45 331.98"/><polygon class="c" points="1529.45 1004.98 1772.45 608.98 1274.45 338.98 1293.45 892.98 1529.45 1004.98"/><polygon class="c" points="1043.45 796.98 1015.45 1807.98 1515.45 1024.98 1043.45 796.98"/><polygon class="c" points="1674.04 .5 840.7 .5 1669.45 465.98 1674.04 .5"/><polygon class="c" points="1784.45 588.98 2151 .5 1697.11 .5 1689.45 534.98 1784.45 588.98"/><polygon class="c" points="2305.16 1249.72 2315.58 .5 2178.57 .5 1318.45 1392 2305.16 1249.72"/><polygon class="c" points="1003.45 1093.39 5.78 529.62 5.78 1300.41 988.61 1549.79 1003.45 1093.39"/><polygon class="e" points="3171.78 1300.41 3171.78 2024.85 3172.45 2024.85 3172.45 1300.58 3171.78 1300.41"/><polygon class="e" points="3172.45 530 3172.45 .5 3171.78 .5 3171.78 529.62 3172.45 530"/><polygon class="d" points="2342.45 60.98 2342.45 1089.98 3171.78 1300.41 3171.78 529.62 2342.45 60.98"/><polygon class="d" points="3171.78 1300.41 3172.45 1300.58 3172.45 530 3171.78 529.62 3171.78 1300.41"/><polygon class="c" points="1673.84 2024.85 840.3 2024.85 840.51 2024.97 1673.84 2024.97 1673.84 2024.85"/><polygon class="c" points="1674.25 1983.45 165.48 1645.83 840.3 2024.85 1673.84 2024.85 1674.25 1983.45"/><polygon class="c" points="2150.8 2024.97 2150.87 2024.85 1696.91 2024.85 1696.91 2024.97 2150.8 2024.97"/><polygon class="c" points="2334.25 1730.45 1698.25 1931.45 1696.91 2024.85 2150.87 2024.85 2334.25 1730.45"/><polygon class="c" points="2315.38 2024.97 2315.38 2024.85 2178.44 2024.85 2178.37 2024.97 2315.38 2024.97"/><polygon class="c" points="2317.25 1800.28 2178.44 2024.85 2315.38 2024.85 2317.25 1800.28"/><polygon class="c" points="200.92 1860.45 264.92 1748.45 136.92 1748.45 200.92 1860.45"/></svg>